<?xml version="1.0" encoding="UTF-8"?>
<svg id="Warstwa_2" data-name="Warstwa 2" xmlns="http://www.w3.org/2000/svg" viewBox="0 0 705.63 224">
  <defs>
    <style>
      .cls-1 {
        fill: #f97316;
      }

      .cls-2 {
        fill: #fff;
      }
    </style>
  </defs>
  <g id="Warstwa_1-2" data-name="Warstwa 1">
    <path class="cls-1" d="m116.21,205.6l-32.99,18.4-.42-103.89,32.98-19.67.43,105.16Z"/>
    <polygon class="cls-1" points="75.3 186.83 75.18 224 .03 163.64 .03 126.22 75.3 186.83"/>
    <polygon class="cls-1" points="75.3 120.77 75.18 157.94 .03 97.59 .03 60.17 75.3 120.77"/>
    <polygon class="cls-1" points="0 60.27 .03 97.59 76.32 37.34 76.42 0 0 60.27"/>
    <polygon class="cls-1" points="151.7 60.51 151.57 97.68 76.32 37.34 76.42 0 151.7 60.51"/>
    <g>
      <path class="cls-2" d="m198.71,129.02c0,2.26.39,4.19,1.16,5.79.77,1.6,1.85,2.91,3.23,3.93,1.38,1.02,2.96,1.77,4.76,2.23,1.79.47,3.74.7,5.83.7,2.26,0,4.19-.26,5.79-.79,1.6-.52,2.9-1.2,3.89-2.03.99-.83,1.71-1.78,2.15-2.85.44-1.08.66-2.17.66-3.27,0-2.26-.51-3.93-1.53-5.01-1.02-1.08-2.14-1.83-3.35-2.28-2.1-.77-4.54-1.5-7.32-2.19-2.79-.69-6.22-1.58-10.3-2.69-2.54-.66-4.65-1.53-6.33-2.61-1.68-1.08-3.02-2.28-4.01-3.6-.99-1.32-1.7-2.73-2.11-4.22-.41-1.49-.62-3.01-.62-4.55,0-2.98.62-5.56,1.86-7.74,1.24-2.18,2.88-3.98,4.92-5.42,2.04-1.43,4.36-2.5,6.95-3.19,2.59-.69,5.21-1.03,7.86-1.03,3.09,0,6,.4,8.73,1.2,2.73.8,5.13,2,7.2,3.6,2.07,1.6,3.71,3.57,4.92,5.92,1.21,2.35,1.82,5.06,1.82,8.15h-10.34c-.28-3.81-1.57-6.5-3.89-8.07-2.32-1.57-5.27-2.36-8.85-2.36-1.21,0-2.46.12-3.72.37-1.27.25-2.43.66-3.48,1.24-1.05.58-1.92,1.37-2.61,2.36-.69.99-1.03,2.23-1.03,3.72,0,2.1.65,3.74,1.94,4.92,1.3,1.19,2.99,2.08,5.09,2.69.22.06,1.09.29,2.61.7,1.52.41,3.21.87,5.09,1.37,1.88.5,3.71.98,5.5,1.45,1.79.47,3.08.81,3.85,1.03,1.93.61,3.61,1.44,5.05,2.48,1.43,1.05,2.63,2.25,3.6,3.6.96,1.35,1.68,2.8,2.15,4.34.47,1.54.7,3.09.7,4.63,0,3.31-.68,6.14-2.03,8.48-1.35,2.35-3.13,4.26-5.34,5.75-2.21,1.49-4.72,2.58-7.53,3.27s-5.68,1.03-8.61,1.03c-3.37,0-6.54-.41-9.52-1.24-2.98-.83-5.57-2.1-7.78-3.81-2.21-1.71-3.97-3.9-5.3-6.58-1.32-2.68-2.01-5.83-2.07-9.47h10.34Z"/>
      <path class="cls-2" d="m239.92,89.63h47.83v8.94h-18.78v50.15h-10.34v-50.15h-18.7v-8.94Z"/>
      <path class="cls-2" d="m294.61,89.63h42.53v8.94h-32.19v15.47h29.79v8.44h-29.79v17.29h32.77v8.94h-43.11v-59.08Z"/>
      <path class="cls-2" d="m346.75,89.63h42.53v8.94h-32.19v15.47h29.79v8.44h-29.79v17.29h32.77v8.94h-43.11v-59.08Z"/>
      <path class="cls-2" d="m398.88,89.63h10.34v50.15h30.04v8.94h-40.38v-59.08Z"/>
      <path class="cls-2" d="m433.14,89.63h47.83v8.94h-18.78v50.15h-10.34v-50.15h-18.7v-8.94Z"/>
      <path class="cls-2" d="m487.83,89.63h28.22c6.51,0,11.39,1.41,14.65,4.22,3.25,2.81,4.88,6.73,4.88,11.75,0,2.81-.41,5.14-1.24,6.99-.83,1.85-1.79,3.34-2.9,4.47-1.1,1.13-2.19,1.94-3.27,2.44-1.08.5-1.86.83-2.36.99v.17c.88.11,1.83.39,2.85.83,1.02.44,1.97,1.15,2.86,2.11.88.97,1.61,2.22,2.19,3.77.58,1.55.87,3.48.87,5.79,0,3.48.26,6.63.79,9.48.52,2.84,1.34,4.87,2.44,6.08h-11.09c-.77-1.27-1.23-2.68-1.37-4.22-.14-1.54-.21-3.03-.21-4.47,0-2.7-.17-5.03-.5-6.99-.33-1.96-.94-3.59-1.82-4.88-.88-1.3-2.08-2.25-3.6-2.85-1.52-.61-3.46-.91-5.83-.91h-15.23v24.33h-10.34v-59.08Zm10.34,26.89h16.96c3.31,0,5.82-.79,7.53-2.36,1.71-1.57,2.57-3.93,2.57-7.08,0-1.87-.28-3.41-.83-4.59-.55-1.19-1.31-2.11-2.28-2.77-.97-.66-2.07-1.1-3.31-1.32-1.24-.22-2.52-.33-3.85-.33h-16.8v18.45Z"/>
      <path class="cls-2" d="m561.89,89.63h11l22.76,59.08h-11.09l-5.54-15.64h-23.58l-5.54,15.64h-10.67l22.67-59.08Zm-3.64,35.58h18.04l-8.85-25.4h-.25l-8.94,25.4Z"/>
      <path class="cls-2" d="m600.87,89.63h10.92l26.98,43.53h.17v-43.53h9.85v59.08h-10.92l-26.89-43.44h-.25v43.44h-9.85v-59.08Z"/>
      <path class="cls-2" d="m667.81,129.02c0,2.26.39,4.19,1.16,5.79.77,1.6,1.85,2.91,3.23,3.93,1.38,1.02,2.96,1.77,4.76,2.23,1.79.47,3.74.7,5.83.7,2.26,0,4.19-.26,5.79-.79,1.6-.52,2.9-1.2,3.89-2.03.99-.83,1.71-1.78,2.15-2.85.44-1.08.66-2.17.66-3.27,0-2.26-.51-3.93-1.53-5.01-1.02-1.08-2.14-1.83-3.35-2.28-2.1-.77-4.54-1.5-7.32-2.19-2.79-.69-6.22-1.58-10.3-2.69-2.54-.66-4.65-1.53-6.33-2.61-1.68-1.08-3.02-2.28-4.01-3.6-.99-1.32-1.7-2.73-2.11-4.22-.41-1.49-.62-3.01-.62-4.55,0-2.98.62-5.56,1.86-7.74,1.24-2.18,2.88-3.98,4.92-5.42,2.04-1.43,4.36-2.5,6.95-3.19,2.59-.69,5.21-1.03,7.86-1.03,3.09,0,6,.4,8.73,1.2,2.73.8,5.13,2,7.2,3.6,2.07,1.6,3.71,3.57,4.92,5.92,1.21,2.35,1.82,5.06,1.82,8.15h-10.34c-.28-3.81-1.57-6.5-3.89-8.07-2.32-1.57-5.27-2.36-8.85-2.36-1.21,0-2.46.12-3.72.37-1.27.25-2.43.66-3.48,1.24-1.05.58-1.92,1.37-2.61,2.36-.69.99-1.03,2.23-1.03,3.72,0,2.1.65,3.74,1.94,4.92,1.3,1.19,2.99,2.08,5.09,2.69.22.06,1.09.29,2.61.7,1.52.41,3.21.87,5.09,1.37,1.88.5,3.71.98,5.5,1.45,1.79.47,3.08.81,3.85,1.03,1.93.61,3.61,1.44,5.05,2.48,1.43,1.05,2.63,2.25,3.6,3.6.96,1.35,1.68,2.8,2.15,4.34.47,1.54.7,3.09.7,4.63,0,3.31-.68,6.14-2.03,8.48-1.35,2.35-3.13,4.26-5.34,5.75-2.21,1.49-4.72,2.58-7.53,3.27s-5.68,1.03-8.61,1.03c-3.37,0-6.54-.41-9.52-1.24-2.98-.83-5.57-2.1-7.78-3.81-2.21-1.71-3.97-3.9-5.3-6.58-1.32-2.68-2.01-5.83-2.07-9.47h10.34Z"/>
    </g>
  </g>
</svg>