<svg height="300" width="300" xmlns="http://www.w3.org/2000/svg" xmlns:xlink="http://www.w3.org/1999/xlink">
<g fill="#ffd617" id="s" transform="translate(150,30)">
<g id="c">
<path d="M 0,-20 V 0 H 10" id="t" transform="rotate(18 0,-20)"></path>
<use transform="scale(-1,1)" xlink:href="#t"></use>
</g>
<use transform="rotate(72)" xlink:href="#c"></use>
<use transform="rotate(144)" xlink:href="#c"></use>
<use transform="rotate(216)" xlink:href="#c"></use>
<use transform="rotate(288)" xlink:href="#c"></use>
</g>
<use transform="rotate(30 150,150) rotate(330 150,30)" xlink:href="#s"></use>
<use transform="rotate(60 150,150) rotate(300 150,30)" xlink:href="#s"></use>
<use transform="rotate(90 150,150) rotate(270 150,30)" xlink:href="#s"></use>
<use transform="rotate(120 150,150) rotate(240 150,30)" xlink:href="#s"></use>
<use transform="rotate(150 150,150) rotate(210 150,30)" xlink:href="#s"></use>
<use transform="rotate(180 150,150) rotate(180 150,30)" xlink:href="#s"></use>
<use transform="rotate(210 150,150) rotate(150 150,30)" xlink:href="#s"></use>
<use transform="rotate(240 150,150) rotate(120 150,30)" xlink:href="#s"></use>
<use transform="rotate(270 150,150) rotate(90 150,30)" xlink:href="#s"></use>
<use transform="rotate(300 150,150) rotate(60 150,30)" xlink:href="#s"></use>
<use transform="rotate(330 150,150) rotate(30 150,30)" xlink:href="#s"></use>
</svg>